<svg width="134" height="166" viewBox="0 0 134 166" fill="none" xmlns="http://www.w3.org/2000/svg">
<path d="M51.4286 134C51.4286 128.375 46.7679 123.714 41.1429 123.714C35.5179 123.714 30.8571 128.375 30.8571 134C30.8571 139.625 35.5179 144.286 41.1429 144.286C46.7679 144.286 51.4286 139.625 51.4286 134ZM123.429 134C123.429 128.375 118.768 123.714 113.143 123.714C107.518 123.714 102.857 128.375 102.857 134C102.857 139.625 107.518 144.286 113.143 144.286C118.768 144.286 123.429 139.625 123.429 134ZM133.714 46.5714C133.714 43.7589 131.384 41.4286 128.571 41.4286H32.0625C31.2589 37.5714 31.0982 31.1429 25.7143 31.1429H5.14286C2.33036 31.1429 0 33.4732 0 36.2857C0 39.0982 2.33036 41.4286 5.14286 41.4286H21.5357L35.7589 107.562C34.4732 110.054 30.8571 116.08 30.8571 118.571C30.8571 121.384 33.1875 123.714 36 123.714H118.286C121.098 123.714 123.429 121.384 123.429 118.571C123.429 115.759 121.098 113.429 118.286 113.429H44.3571C45.1607 111.821 46.2857 110.134 46.2857 108.286C46.2857 106.357 45.6429 104.509 45.2411 102.661L129.134 92.8571C131.705 92.5357 133.714 90.2857 133.714 87.7143V46.5714Z" fill="black"/>
</svg>
